<?xml version="1.0" encoding="utf-8"?>
<!-- Generator: Adobe Illustrator 16.0.0, SVG Export Plug-In . SVG Version: 6.00 Build 0)  -->
<!DOCTYPE svg PUBLIC "-//W3C//DTD SVG 1.1//EN" "http://www.w3.org/Graphics/SVG/1.1/DTD/svg11.dtd">
<svg version="1.1" id="Layer_1" xmlns="http://www.w3.org/2000/svg" xmlns:xlink="http://www.w3.org/1999/xlink" x="0px" y="0px"
	 width="1000px" height="979.929px" viewBox="0 0 1000 979.929" enable-background="new 0 0 1000 979.929" xml:space="preserve">
<g>
	<rect fill="#E2231A" width="1000" height="979.929"/>
	<path fill="#FFFFFF" d="M314.334,469.878l-46.354-94.987h-51.255v94.987h-51.816V219.534h115.276
		c19.166,0,32.526,1.843,44.169,5.682c31.339,10.362,52.129,34.929,52.129,72.855c0,36.178-20.446,61.557-54.221,73.136
		l52.66,98.671H314.334z M298.664,268.074c-4.713-1.374-12.049-1.811-17.168-1.811h-64.771v62.897h64.271
		c4.963,0,12.299-0.437,16.7-1.654c13.235-3.434,22.912-13.485,22.912-29.966C320.608,281.278,311.025,271.539,298.664,268.074"/>
	<path fill="#FFFFFF" d="M791.766,463.698c-13.734,4.431-33.961,6.211-59.808,6.211h-64.615V219.566h64.739
		c23.35,0,45.199,1.997,60.308,7.022c52.504,17.761,83.063,61.524,83.063,118.212C875.452,401.673,844.894,446.436,791.766,463.698
		 M766.731,270.165c-6.993-1.591-14.733-1.936-23.193-1.936h-24.503v153.078h22.662c9.428,0,17.948-0.467,25.533-2.465
		c35.367-9.083,51.692-38.146,51.692-75.041C818.923,305.501,801.817,278.094,766.731,270.165"/>
	<rect x="426.552" y="219.534" fill="#FFFFFF" width="180.422" height="49.413"/>
	<rect x="426.552" y="320.047" fill="#FFFFFF" width="180.422" height="49.382"/>
	<rect x="426.552" y="420.527" fill="#FFFFFF" width="180.422" height="49.382"/>
	<path fill="#FFFFFF" d="M374.953,696.093c0,40.485-23.099,65.114-60.65,72.761c-9.302,1.998-20.478,2.716-36.678,2.716H164.909
		V521.164h115.776c12.111,0,26.158,0.844,35.928,3.496c31.028,8.209,49.507,29.997,49.507,62.648
		c0,29.404-14.546,46.854-31.153,54.157C351.574,645.837,374.953,665.938,374.953,696.093 M280.091,568.767h-63.709v53.472h65.239
		c20.103,0,29.217-13.454,29.217-27.406C310.838,579.1,301.286,568.767,280.091,568.767 M283.088,666.563h-66.706v57.342h66.706
		c22.413,0,35.96-10.676,35.96-29.093C319.048,677.396,305.5,666.563,283.088,666.563"/>
	<rect x="426.552" y="520.977" fill="#FFFFFF" width="180.422" height="49.413"/>
	<rect x="426.552" y="621.613" fill="#FFFFFF" width="180.422" height="49.352"/>
	<rect x="426.552" y="722.032" fill="#FFFFFF" width="180.422" height="49.413"/>
	<polygon fill="#FFFFFF" points="847.766,570.39 847.766,521.07 667.343,521.07 667.343,570.39 667.438,570.39 667.438,621.676 
		667.343,621.676 667.343,670.965 667.438,670.965 667.438,722.156 667.343,722.156 667.343,771.445 847.766,771.445 
		847.766,722.156 719.035,722.156 719.035,670.965 847.766,670.965 847.766,621.676 719.035,621.676 719.035,570.39 	"/>
</g>
</svg>
